<svg width="2400" height="900" viewBox="0 0 2400 900" fill="none" xmlns="http://www.w3.org/2000/svg">
  <defs>
    <linearGradient id="bg" x1="0" y1="0" x2="2400" y2="900" gradientUnits="userSpaceOnUse">
      <stop offset="0%" stop-color="#07060B"/>
      <stop offset="55%" stop-color="#0E0B1F"/>
      <stop offset="100%" stop-color="#150824"/>
    </linearGradient>
    <radialGradient id="glow" cx="0" cy="0" r="1" gradientUnits="userSpaceOnUse" gradientTransform="translate(760 380) rotate(25) scale(560 460)">
      <stop offset="0%" stop-color="#8B53FF" stop-opacity="0.75"/>
      <stop offset="55%" stop-color="#8B53FF" stop-opacity="0.25"/>
      <stop offset="100%" stop-color="#8B53FF" stop-opacity="0"/>
    </radialGradient>
    <radialGradient id="edge" cx="0" cy="0" r="1" gradientUnits="userSpaceOnUse" gradientTransform="translate(1900 520) rotate(-15) scale(620 460)">
      <stop offset="0%" stop-color="#3B1E6A" stop-opacity="0.45"/>
      <stop offset="100%" stop-color="#3B1E6A" stop-opacity="0"/>
    </radialGradient>
    <linearGradient id="accent" x1="0" y1="0" x2="1" y2="1">
      <stop offset="0%" stop-color="#C08BFF"/>
      <stop offset="100%" stop-color="#7E45FF"/>
    </linearGradient>
    <filter id="logoShadow" x="-20%" y="-20%" width="140%" height="140%" color-interpolation-filters="sRGB">
      <feDropShadow dx="0" dy="18" stdDeviation="22" flood-color="#2C1A4B" flood-opacity="0.7"/>
    </filter>
  </defs>

  <rect width="2400" height="900" fill="url(#bg)"/>
  <rect x="0" y="0" width="2400" height="900" fill="url(#glow)"/>
  <rect x="0" y="0" width="2400" height="900" fill="url(#edge)"/>

  <path d="M1690 130 L2220 360" stroke="url(#accent)" stroke-opacity="0.38" stroke-width="6" stroke-linecap="round"/>
  <path d="M1650 660 C1880 520 2160 520 2300 700" stroke="#8B5CFF" stroke-opacity="0.28" stroke-width="5" stroke-linecap="round"/>

  <circle cx="2030" cy="240" r="6" fill="#B68CFF" opacity="0.6"/>
  <circle cx="2080" cy="270" r="4" fill="#B68CFF" opacity="0.5"/>
  <circle cx="1980" cy="720" r="5" fill="#8B5CFF" opacity="0.5"/>

  <image href="image.png" x="210" y="110" width="660" height="660" preserveAspectRatio="xMidYMid meet" filter="url(#logoShadow)"/>
  <image href="image.png" x="1560" y="190" width="760" height="760" preserveAspectRatio="xMidYMid meet" opacity="0.08"/>

  <text x="1350" y="385" fill="#F6F3FF" font-size="128" font-weight="700" font-family="Inter, Segoe UI, Arial, sans-serif" letter-spacing="2">
    OpenClaw Extension
  </text>
  <text x="1350" y="455" fill="#CFC6F2" font-size="36" font-weight="500" font-family="Inter, Segoe UI, Arial, sans-serif" letter-spacing="4">
    Threaded by OpenKnot
  </text>

  <path d="M980 560 C1180 520 1320 560 1500 640" stroke="#6F46E8" stroke-opacity="0.4" stroke-width="4" stroke-linecap="round"/>
</svg>
